# xmcd CD database file
#
# Track frame offsets:
#	150
#	26551
#	46347
#	64903
#	95454
#	113355
#	135381
#	147082
#	171408
#	185059
#	202780
#	228008
#	233764
#	259053
#	284274
#	305310
#
# Disc length: 4409 seconds
#
# Revision: 2
# Processed by: cddbd v1.5.1PL2 Copyright (c) Steve Scherf et al.
# Submitted via: CDex 1.51
#
DISCID=d2113710
DTITLE=VOW WOW - Hard Rock Night
DYEAR=1987
DGENRE=Rock
TTITLE0=Introduction -- Beat Of Metal Motion
TTITLE1=Go Insane
TTITLE2=Doncha Wanna Cum (Hangar 15)
TTITLE3=Guiter Solo (Snow Flakes) -- Pains Of Love
TTITLE4=Too Late To Turn Back
TTITLE5=Mask Of Flesh (Masquerade)
TTITLE6=Vocal Solo (Cry Me A River)
TTITLE7=I'll Wait A Lifetime
TTITLE8=Keyboard Solo (Include Arabesque)
TTITLE9=Signs Of The Times
TTITLE10=Love Walks
TTITLE11=Premonition
TTITLE12=Hurricane
TTITLE13=Shot In The Dark
TTITLE14=Guiter Solo (CCG) -- You Got It Made
TTITLE15=Nightless City
EXTD=YEAR: 1987
EXTT0=
EXTT1=
EXTT2=
EXTT3=
EXTT4=
EXTT5=
EXTT6=
EXTT7=
EXTT8=
EXTT9=
EXTT10=
EXTT11=
EXTT12=
EXTT13=
EXTT14=
EXTT15=
PLAYORDER=
